<svg width="15" height="15" viewBox="0 0 15 15" fill="none" xmlns="http://www.w3.org/2000/svg">
<path fill-rule="evenodd" clip-rule="evenodd" d="M9.98318 0.790812C11.0376 -0.263604 12.7471 -0.263604 13.8016 0.790812C14.856 1.84523 14.856 3.55477 13.8016 4.60919L11.6802 6.73051C10.797 7.61373 9.45411 7.75713 8.42162 7.1607L7.16068 8.42163C7.75713 9.45412 7.61374 10.797 6.73051 11.6803L4.60919 13.8016C3.55477 14.856 1.84523 14.856 0.790812 13.8016C-0.263604 12.7472 -0.263604 11.0376 0.790811 9.98321L2.91213 7.86189C3.79535 6.97866 5.13824 6.83527 6.17073 7.43169L7.43167 6.17075C6.83523 5.13826 6.97863 3.79536 7.86186 2.91213L9.98318 0.790812ZM9.49129 6.09103L9.55891 6.02341C9.83228 5.75004 9.83228 5.30683 9.55891 5.03346C9.28554 4.76009 8.84233 4.76009 8.56896 5.03346L8.50134 5.10108C8.40954 4.68258 8.52637 4.22752 8.85181 3.90208L10.9731 1.78076C11.4808 1.27308 12.3039 1.27308 12.8116 1.78076C13.3193 2.28844 13.3193 3.11156 12.8116 3.61924L10.6903 5.74056C10.3648 6.066 9.90979 6.18282 9.49129 6.09103ZM5.10105 8.50136C4.68256 8.40958 4.22752 8.5264 3.90208 8.85184L1.78076 10.9732C1.27308 11.4808 1.27308 12.304 1.78076 12.8116C2.28844 13.3193 3.11156 13.3193 3.61924 12.8116L5.74056 10.6903C6.066 10.3649 6.18283 9.9098 6.09102 9.4913L6.02338 9.55894C5.75001 9.83231 5.30679 9.83231 5.03343 9.55894C4.76006 9.28557 4.76006 8.84236 5.03343 8.56899L5.10105 8.50136Z" fill="white"/>
</svg>
