<svg width="13" height="13" viewBox="0 0 13 13" fill="none" xmlns="http://www.w3.org/2000/svg">
<path fill-rule="evenodd" clip-rule="evenodd" d="M10.9933 0.275648C10.7506 0.0329546 10.182 -0.185849 9.74876 0.247363L5.37697 4.61915C5.2577 4.73842 5.17435 4.88881 5.13642 5.05317L4.79701 6.52396C4.64745 7.17202 5.22827 7.75283 5.87633 7.60328L7.34711 7.26387C7.51147 7.22594 7.66186 7.14259 7.78114 7.02331L12.1529 2.65153C12.5861 2.21831 12.3673 1.64971 12.1246 1.40702L10.9933 0.275648ZM6.46832 5.5077L10.3569 1.61915L10.7811 2.04341L6.89258 5.93197L6.34104 6.05925L6.46832 5.5077Z" fill="white"/>
<path fill-rule="evenodd" clip-rule="evenodd" d="M10.9933 0.275648C10.7506 0.0329546 10.182 -0.185849 9.74876 0.247363L5.37697 4.61915C5.2577 4.73842 5.17435 4.88881 5.13642 5.05317L4.79701 6.52396C4.64745 7.17202 5.22827 7.75283 5.87633 7.60328L7.34711 7.26387C7.51147 7.22594 7.66186 7.14259 7.78114 7.02331L12.1529 2.65153C12.5861 2.21831 12.3673 1.64971 12.1246 1.40702L10.9933 0.275648ZM6.46832 5.5077L10.3569 1.61915L10.7811 2.04341L6.89258 5.93197L6.34104 6.05925L6.46832 5.5077Z" fill="white"/>
<path d="M6.53333 2.3292H1.4V10.9292H10V6.6292C10 6.2426 10.3134 5.9292 10.7 5.9292C11.0866 5.9292 11.4 6.2426 11.4 6.6292V11.4292C11.4 11.9263 10.9971 12.3292 10.5 12.3292H0.9C0.402943 12.3292 0 11.9263 0 11.4292V1.8292C0 1.33214 0.402945 0.929199 0.9 0.929199H6.53333C6.91993 0.929199 7.23333 1.2426 7.23333 1.6292C7.23333 2.0158 6.91993 2.3292 6.53333 2.3292Z" fill="white"/>
<path d="M6.53333 2.3292H1.4V10.9292H10V6.6292C10 6.2426 10.3134 5.9292 10.7 5.9292C11.0866 5.9292 11.4 6.2426 11.4 6.6292V11.4292C11.4 11.9263 10.9971 12.3292 10.5 12.3292H0.9C0.402943 12.3292 0 11.9263 0 11.4292V1.8292C0 1.33214 0.402945 0.929199 0.9 0.929199H6.53333C6.91993 0.929199 7.23333 1.2426 7.23333 1.6292C7.23333 2.0158 6.91993 2.3292 6.53333 2.3292Z" fill="white"/>
</svg>
