<svg width="12" height="12" viewBox="0 0 12 12" fill="none" xmlns="http://www.w3.org/2000/svg">
<path d="M5.7 1.4H1.4V10H5.7C6.0866 10 6.4 10.3134 6.4 10.7C6.4 11.0866 6.0866 11.4 5.7 11.4H0.9C0.402942 11.4 0 10.9971 0 10.5V0.9C0 0.402943 0.402945 0 0.9 0H5.7C6.0866 0 6.4 0.313401 6.4 0.7C6.4 1.0866 6.0866 1.4 5.7 1.4Z" fill="#FF4D4D"/>
<path d="M11.195 6.19501L9.19498 8.195C8.92161 8.46837 8.47839 8.46837 8.20503 8.195C7.93166 7.92164 7.93166 7.47842 8.20503 7.20506L9.01007 6.40001H4.69999C4.31339 6.40001 3.99999 6.08661 3.99999 5.70001C3.99999 5.31341 4.31339 5.00001 4.69999 5.00001H9.01001L8.20502 4.19501C7.93165 3.92165 7.93165 3.47843 8.20502 3.20507C8.47838 2.9317 8.9216 2.9317 9.19497 3.20507L11.1911 5.20115C11.1986 5.20857 11.206 5.21617 11.2132 5.22392C11.2718 5.28706 11.3167 5.35838 11.3477 5.43404C11.3873 5.53061 11.4044 5.63425 11.399 5.73692C11.3952 5.81096 11.3798 5.88195 11.3547 5.94815C11.3207 6.03815 11.2674 6.12255 11.195 6.19501Z" fill="#FF4D4D"/>
</svg>
