<svg width="20" height="20" viewBox="0 0 20 20" fill="none" xmlns="http://www.w3.org/2000/svg">
<path fill-rule="evenodd" clip-rule="evenodd" d="M4.49503 3.00507L17.495 16.0051C17.7684 16.2784 17.7684 16.7217 17.495 16.995C17.2217 17.2684 16.7785 17.2684 16.5051 16.995L14.0046 14.4945C12.8754 15.1894 11.5121 15.7001 10 15.7001C7.76589 15.7001 5.85607 14.5872 4.53177 13.3954C3.86506 12.7953 3.32626 12.1576 2.94886 11.5915C2.76041 11.3088 2.60574 11.0343 2.4956 10.7829C2.39297 10.5486 2.30005 10.2704 2.30005 10.0001C2.30005 9.6504 2.45737 9.2671 2.62875 8.94236C2.81582 8.58786 3.08084 8.19131 3.40799 7.78643C3.9155 7.15832 4.5936 6.48423 5.40775 5.89769L3.50509 3.99502C3.23172 3.72166 3.23172 3.27844 3.50508 3.00507C3.77845 2.73171 4.22167 2.73171 4.49503 3.00507ZM11.6487 12.1386L12.9819 13.4718C12.0868 13.9714 11.0759 14.3001 10 14.3001C8.23421 14.3001 6.64403 13.4129 5.46832 12.3547C4.88503 11.8298 4.42384 11.28 4.11373 10.8149C3.95843 10.5819 3.84749 10.3799 3.77794 10.2211C3.72002 10.0889 3.70517 10.0191 3.70136 10.0012L3.70079 9.99852L3.70142 9.99584C3.70741 9.96999 3.73715 9.84166 3.86691 9.59577C4.00376 9.33645 4.21495 9.0153 4.49694 8.66631C4.97417 8.07568 5.62913 7.43619 6.41286 6.9028L7.86147 8.35141C7.04299 9.41036 7.11946 10.9378 8.09087 11.9092C9.06229 12.8807 10.5897 12.9571 11.6487 12.1386ZM10.6413 11.1313L8.86885 9.35879C8.58732 9.85477 8.65797 10.4964 9.08082 10.9193C9.50367 11.3421 10.1453 11.4128 10.6413 11.1313Z" fill="white"/>
<path d="M15.9566 11.9322C16.2723 12.1554 16.7091 12.0804 16.9322 11.7647C17.1565 11.4475 17.3396 11.1395 17.4697 10.86C17.5901 10.6011 17.7 10.2937 17.7 10.0001C17.7 9.72968 17.6071 9.45147 17.5045 9.21721C17.3944 8.9658 17.2397 8.69131 17.0512 8.40864C16.6738 7.84255 16.135 7.20479 15.4683 6.60475C14.144 5.41288 12.2342 4.30005 10 4.30005C9.61345 4.30005 9.30005 4.61345 9.30005 5.00005C9.30005 5.38665 9.61345 5.70005 10 5.70005C11.7659 5.70005 13.3561 6.58722 14.5318 7.64536C15.1151 8.17032 15.5763 8.72006 15.8864 9.18522C16.0417 9.41817 16.1526 9.62024 16.2222 9.77899C16.2801 9.91119 16.2949 9.98105 16.2987 9.99895L16.2991 10.0004L16.2986 10.0027C16.2939 10.0237 16.2752 10.1085 16.2003 10.2695C16.1137 10.4556 15.9772 10.6904 15.789 10.9566C15.5659 11.2723 15.6409 11.7091 15.9566 11.9322Z" fill="white"/>
</svg>
