<svg width="20" height="20" viewBox="0 0 20 20" fill="none" xmlns="http://www.w3.org/2000/svg">
<path fill-rule="evenodd" clip-rule="evenodd" d="M11.0001 3.30005C14.1481 3.30005 16.7001 5.85203 16.7001 9.00005C16.7001 12.1481 14.1481 14.7 11.0001 14.7C9.67833 14.7 8.46167 14.2502 7.49485 13.4952L4.49502 16.495C4.22166 16.7684 3.77844 16.7684 3.50507 16.495C3.23171 16.2217 3.23171 15.7784 3.50507 15.5051L6.5049 12.5052C5.74993 11.5384 5.30006 10.3218 5.30006 9.00005C5.30006 5.85203 7.85204 3.30005 11.0001 3.30005ZM15.3001 9.00005C15.3001 6.62522 13.3749 4.70005 11.0001 4.70005C8.62524 4.70005 6.70006 6.62522 6.70006 9.00005C6.70006 11.3749 8.62524 13.3 11.0001 13.3C13.3749 13.3 15.3001 11.3749 15.3001 9.00005Z" fill="#555555"/>
</svg>
